<svg xmlns="http://www.w3.org/2000/svg" xmlns:xlink="http://www.w3.org/1999/xlink" version="1.1" width="256" height="256" viewBox="0 0 256 256" xml:space="preserve">
<desc>Created with Fabric.js 1.7.22</desc>
<defs>
</defs>
<g transform="translate(128 128) scale(0.87 0.87)" style="">
	<g style="stroke: none; stroke-width: 0; stroke-dasharray: none; stroke-linecap: butt; stroke-linejoin: miter; stroke-miterlimit: 10; fill: rgb(255,255,255); fill-rule: nonzero; opacity: 1;" transform="translate(-144.89999999999998 -144.90000000000003) scale(3.22 3.22)" >
	<circle cx="45" cy="45" r="45" style="stroke: none; stroke-width: 1; stroke-dasharray: none; stroke-linecap: butt; stroke-linejoin: miter; stroke-miterlimit: 10; fill: rgb(255,255,255); fill-rule: nonzero; opacity: 1;" transform="  matrix(1 0 0 1 0 0) "/>
</g>
	<g style="stroke: none; stroke-width: 0; stroke-dasharray: none; stroke-linecap: butt; stroke-linejoin: miter; stroke-miterlimit: 10; fill: none; fill-rule: nonzero; opacity: 1;" transform="translate(-81.89999999999998 -81.90000000000003) scale(1.82 1.82)" >
	<path d="M 5.46 63.31 c 0 0 3.998 1.875 6.773 8.925 c 0 0 3.581 10.887 20.55 7.197 c 0.017 3.237 0.046 6.354 0.064 8.571 C 32.857 89.112 33.758 90 34.867 90 h 26.238 c 1.11 0 2.012 -0.89 2.019 -2 c 0.02 -3.124 0.056 -8.131 0.056 -13.951 c 0 -5.691 -1.949 -9.403 -4.137 -11.296 c 13.583 -1.51 27.853 -6.668 27.853 -30.097 c 0 -6.659 -2.366 -12.101 -6.278 -16.373 c 0.633 -1.537 2.722 -7.741 -0.599 -16.143 c 0 0 -5.115 -1.638 -16.757 6.253 c -4.875 -1.352 -10.097 -2.029 -15.281 -2.053 C 42.798 4.365 37.58 5.043 32.714 6.394 C 21.058 -1.497 15.936 0.141 15.936 0.141 c -3.312 8.402 -1.224 14.606 -0.591 16.143 c -3.902 4.272 -6.286 9.713 -6.286 16.373 c 0 23.372 14.243 28.603 27.792 30.145 c -1.745 1.523 -3.325 4.215 -3.873 8.157 c -3.481 1.559 -12.311 4.254 -17.751 -5.07 c 0 0 -3.226 -5.856 -9.35 -6.287 C 5.877 59.602 -0.075 59.524 5.46 63.31 z" style="stroke: none; stroke-width: 1; stroke-dasharray: none; stroke-linecap: butt; stroke-linejoin: miter; stroke-miterlimit: 10; fill: rgb(97,56,120); fill-rule: nonzero; opacity: 1;" transform=" matrix(1 0 0 1 0 0) " stroke-linecap="round" />
</g>
</g>
</svg>