<svg width="512" height="512" xmlns="http://www.w3.org/2000/svg" clip-rule="evenodd" xml:space="preserve" version="1.1">

 <g>
  <title>Layer 1</title>
  <g id="svg_9">
   <path fill="#ffffff" id="svg_8" d="m510.4,256c0,-140.845 -114.349,-255.194 -255.194,-255.194l-0.012,0c-140.845,0 -255.194,114.349 -255.194,255.194c0,140.845 114.349,255.194 255.194,255.194l0.012,0c140.845,0 255.194,-114.349 255.194,-255.194zm-229.576,0.002c0,62.731 -50.508,113.584 -112.81,113.584c-62.302,0 -112.814,-50.865 -112.814,-113.584c0,-62.72 50.508,-113.588 112.814,-113.588c62.306,0 112.81,50.857 112.81,113.588zm123.757,0c0,59.048 -25.255,106.934 -56.407,106.934c-31.153,0 -56.407,-47.886 -56.407,-106.934c0,-59.048 25.25,-106.935 56.403,-106.935c31.153,0 56.407,47.872 56.407,106.935l0.004,0zm50.619,0c0,52.892 -8.881,95.796 -19.838,95.796c-10.958,0 -19.835,-42.892 -19.835,-95.796c0,-52.904 8.88,-95.796 19.835,-95.796c10.954,0 19.838,42.888 19.838,95.796z" opacity="undefined" stroke-dasharray="5,2,2,2"/>
   <path fill="#ffffff" id="svg_2" d="m511.4,258c0,-140.845 -114.349,-255.194 -255.194,-255.194l-0.012,0c-140.845,0 -255.194,114.349 -255.194,255.194c0,140.845 114.349,255.194 255.194,255.194l0.012,0l255.194,-255.194zm-229.576,0.002c0,62.731 -50.508,113.584 -112.81,113.584c-62.302,0 -112.814,-50.865 -112.814,-113.584c0,-62.72 50.508,-113.588 112.814,-113.588c62.306,0 112.81,50.857 112.81,113.588zm123.757,0c0,59.048 -25.255,106.934 -56.407,106.934c-31.153,0 -56.407,-47.886 -56.407,-106.934c0,-59.048 25.25,-106.935 56.403,-106.935c31.153,0 56.407,47.872 56.407,106.935l0.004,0zm50.619,0c0,52.892 -8.881,95.796 -19.838,95.796c-10.958,0 -19.835,-42.892 -19.835,-95.796c0,-52.904 8.88,-95.796 19.835,-95.796c10.954,0 19.838,42.888 19.838,95.796z" opacity="undefined" stroke-dasharray="5,2,2,2"/>
   <ellipse transform="rotate(-0.233034, 168, 257)" ry="114" rx="113" id="svg_3" cy="257" cx="168" stroke-dasharray="5,2,2,2" fill="#613878"/>
   <ellipse ry="108" rx="57" id="svg_4" cy="257" cx="348" stroke-dasharray="5,2,2,2" fill="#613878"/>
   <ellipse ry="96" rx="21" id="svg_5" cy="257" cx="435" stroke-dasharray="5,2,2,2" fill="#613878"/>
  </g>
 </g>
</svg>